# xmcd
#
# Track frame offsets: 
#        150
#        19625
#        36845
#        57295
#        75850
#        95545
#        115250
#        141322
#        159644
#        177659
#        198175
#        217644
#        240665
#
# Disc length: 3504 seconds
#
# Revision: 0
# Processed by: cddbd v1.5.2PL0 Copyright (c) Steve Scherf et al.
# Submitted via: ExactAudioCopy v0.99pb3
#
DISCID=a40dae0d
DTITLE=Mary Chapin Carpenter - The Calling
DYEAR=2007
DGENRE=Pop
TTITLE0=The Calling
TTITLE1=We're All Right
TTITLE2=Twilight
TTITLE3=It Must Have Happened
TTITLE4=On and On It Goes
TTITLE5=Your Life Story
TTITLE6=Houston
TTITLE7=Leaving Song
TTITLE8=On With the Song
TTITLE9=Closer and Closer Apart
TTITLE10=Here I Am
TTITLE11=Why Shouldn't We
TTITLE12=Bright Morning Star
EXTD=
EXTT0=
EXTT1=
EXTT2=
EXTT3=
EXTT4=
EXTT5=
EXTT6=
EXTT7=
EXTT8=
EXTT9=
EXTT10=
EXTT11=
EXTT12=
PLAYORDER=
